# xmcd CD database file
#
# Track frame offsets:
#	150
#	18144
#	40603
#	61743
#	81417
#	98993
#	117583
#	136667
#	156888
#	175690
#	195950
#	214970
#	236228
#	259419
#	282534
#	300548
#	320786
#
# Disc length: 4626 seconds
#
# Revision: 0
# Processed by: cddbd v1.5PL3 Copyright (c) Steve Scherf et al.
# Submitted via: CDex 1.51
#
DISCID=ef121011
DTITLE=伊藤智恵理 - アイドル・ミラクルバイブルシリーズ
DYEAR=2003
DGENRE=Pop
TTITLE0=パラダイス・ウォーカー
TTITLE1=トキメキがいたくて
TTITLE2=雨に消えたあいつ
TTITLE3=夢かもしれない
TTITLE4=ココナッツの片想い
TTITLE5=キッスでささやいて…
TTITLE6=天気になれ
TTITLE7=フレンドシップ
TTITLE8=大切な気持ち
TTITLE9=Winter Wonderland
TTITLE10=Merry Christmas
TTITLE11=彼のダイアモンド
TTITLE12=ルージュ
TTITLE13=辞書の最後のページ
TTITLE14=魔法をかけて
TTITLE15=二人のリーズン
TTITLE16=ロシアン・アフタヌーン
EXTD=YEAR: 2003
EXTT0=
EXTT1=
EXTT2=
EXTT3=
EXTT4=
EXTT5=
EXTT6=
EXTT7=
EXTT8=
EXTT9=
EXTT10=
EXTT11=
EXTT12=
EXTT13=
EXTT14=
EXTT15=
EXTT16=
PLAYORDER=
